<?xml version="1.0" standalone="no"?>
<svg version="1.0" xmlns="http://www.w3.org/2000/svg"
 width="400.000000pt" height="400.000000pt" viewBox="0 0 400.000000 400.000000"
 preserveAspectRatio="xMidYMid meet">

<g transform="translate(0.000000,400.000000) scale(0.100000,-0.100000)"
fill="#016974" stroke="none">
<path d="M1020 3403 c-6 -32 -14 -65 -16 -73 -5 -14 -60 -269 -144 -665 -65
-307 -109 -514 -145 -676 -19 -86 -35 -163 -35 -172 0 -16 36 -17 443 -17
l442 0 28 133 c16 72 48 224 73 337 24 113 54 253 66 313 l22 107 1026 0 c564
0 1030 4 1036 8 10 7 20 52 105 457 36 173 51 237 65 288 5 16 -70 17 -1475
17 l-1480 0 -11 -57z"/>
<path d="M2439 2208 c-2 -8 -64 -297 -93 -438 -19 -91 -46 -212 -59 -270 -14
-58 -28 -124 -32 -147 l-7 -43 -1037 0 -1038 0 -28 -127 c-15 -71 -47 -220
-70 -333 -23 -113 -48 -223 -54 -245 -6 -22 -11 -46 -11 -52 0 -10 303 -13
1480 -13 l1480 0 5 23 c2 12 16 72 30 132 14 61 40 184 59 275 19 91 56 262
81 380 25 118 64 298 85 400 50 230 88 408 95 438 l5 22 -445 0 c-245 0 -445
-1 -446 -2z"/>
</g>
</svg>
