<svg xmlns="http://www.w3.org/2000/svg"
     x="0px"
     y="0px"
     width="100"
     height="100"
     viewBox="0 0 100 100">
    <path d="M62.489,71h37.513v4H57.748	C59.579,73.987,61.188,72.627,62.489,71z M0.003,75v-4h50c5.519,0,10-4.48,10-10V43.413l-4.293,4.293l-1.415-1.413l7-7	c0.391-0.387,1.024-0.387,1.415,0l7,7l-1.415,1.413l-4.292-4.293V61c0,7.733-6.272,14-14,14H0.003z M36.06,62.28	c1.159,1,2.895,0.96,4.011-0.107C40.397,64.96,41.869,67.4,44.004,69h-5.491C37.16,67.067,36.287,64.773,36.06,62.28z M37.297,60.707l-7-7l1.415-1.413l4.291,4.293V39c0-7.733,6.271-14,14-14c7.295,0,13.292,5.587,13.941,12.72	c-1.16-0.987-2.895-0.96-4.011,0.107C59.353,32.867,55.124,29,50.003,29c-5.52,0-10,4.48-10,10v17.587l4.295-4.293l1.415,1.413l-7,7	C38.321,61.107,37.688,61.107,37.297,60.707z" />
</svg>